<?xml version="1.0" encoding="UTF-8" standalone="no"?>
<!-- Created with Inkscape (http://www.inkscape.org/) -->

<svg
   xmlns:dc="http://purl.org/dc/elements/1.1/"
   xmlns:cc="http://creativecommons.org/ns#"
   xmlns:rdf="http://www.w3.org/1999/02/22-rdf-syntax-ns#"
   xmlns:svg="http://www.w3.org/2000/svg"
   xmlns="http://www.w3.org/2000/svg"
   xmlns:xlink="http://www.w3.org/1999/xlink"
   xmlns:sodipodi="http://sodipodi.sourceforge.net/DTD/sodipodi-0.dtd"
   xmlns:inkscape="http://www.inkscape.org/namespaces/inkscape"
   width="439.01477"
   height="267.76218"
   id="svg2"
   version="1.1"
   inkscape:version="0.48.4 r9939"
   sodipodi:docname="spinal_cord.svg">
  <defs
     id="defs4">
    <linearGradient
       inkscape:collect="always"
       id="linearGradient3834">
      <stop
         style="stop-color:#f9e286;stop-opacity:1;"
         offset="0"
         id="stop3836" />
      <stop
         style="stop-color:#f9e286;stop-opacity:0;"
         offset="1"
         id="stop3838" />
    </linearGradient>
    <linearGradient
       inkscape:collect="always"
       xlink:href="#linearGradient3834"
       id="linearGradient3840"
       x1="474.29874"
       y1="473.44632"
       x2="652.08826"
       y2="473.44632"
       gradientUnits="userSpaceOnUse"
       gradientTransform="matrix(1.2277406,0,0,1.2277406,-353.14449,-188.92602)" />
    <clipPath
       clipPathUnits="userSpaceOnUse"
       id="clipPath3798">
      <path
         style="fill:none;stroke:#000000;stroke-width:1px;stroke-linecap:butt;stroke-linejoin:miter;stroke-opacity:1"
         d="m 184.41409,272.72923 c -6.15155,0.0241 -13.32131,0.80568 -21.46875,4.125 -20.20305,8.23087 -29.95315,13.82902 -36.6875,20.9375 -6.73435,7.10848 -22.4488,25.06168 -27.3125,38.15625 -4.86369,13.09457 -13.46354,28.80043 -11.21875,50.5 2.24478,21.69957 9.37592,51.27956 23.21875,64 13.84283,12.72044 40.37852,26.19272 55.34375,28.4375 14.96522,2.24479 18.26648,2.84882 23.28125,1.375 1.21424,-0.35687 4.55402,-2.16356 5.09348,-3.4375 2.47927,-5.85484 1.19973,-17.78602 1.8125,-21.15625 0.74826,-4.11544 0.81302,-49.55125 0.93802,-49.55125 0.125,0 0.15749,45.43581 0.90575,49.55125 0.61277,3.37023 -0.66677,15.30141 1.8125,21.15625 0.53946,1.27394 3.87976,3.08064 5.094,3.4375 5.01477,1.47383 8.31603,0.86978 23.28125,-1.375 14.96523,-2.24478 41.53217,-15.71706 55.375,-28.4375 13.84283,-12.72044 20.94272,-42.30043 23.1875,-64 2.24479,-21.69957 -6.35506,-37.40543 -11.21875,-50.5 -4.8637,-13.09457 -20.57815,-31.04777 -27.3125,-38.15625 -6.73435,-7.10848 -16.4532,-12.70663 -36.65625,-20.9375 -13.0359,-5.31092 -23.61021,-4.10203 -31.4375,-3.75 -1.17996,0.0531 -2.52528,0.0191 -2.90625,1.6875 -0.0444,0.19423 -0.11654,4.58293 -0.15625,5.09375 -0.0397,-0.50995 -0.0495,-4.89973 -0.0937,-5.09375 -0.38097,-1.66838 -1.75754,-1.63443 -2.9375,-1.6875 -2.93523,-0.13201 -6.24654,-0.375 -9.9375,-0.375 z"
         id="path3800"
         inkscape:connector-curvature="0"
         sodipodi:nodetypes="cssssssssscsssssssssssccssc" />
    </clipPath>
    <clipPath
       clipPathUnits="userSpaceOnUse"
       id="clipPath3880">
      <path
         inkscape:connector-curvature="0"
         id="path3882"
         d="m 75.714267,264.78914 0,228.03125 384.125003,0 0,-228.03125 z m 108.687503,7.9375 c 3.69096,0 7.00227,0.24299 9.9375,0.375 1.17996,0.0531 2.55653,0.0191 2.9375,1.6875 0.0442,0.19402 0.054,4.5838 0.0937,5.09375 0.0397,-0.51082 0.11185,-4.89952 0.15625,-5.09375 0.38097,-1.6684 1.72629,-1.6344 2.90625,-1.6875 7.82729,-0.35203 18.4016,-1.56092 31.4375,3.75 20.20305,8.23087 29.9219,13.82902 36.65625,20.9375 6.73435,7.10848 22.4488,25.06168 27.3125,38.15625 4.86369,13.09457 13.46354,28.80043 11.21875,50.5 -2.24478,21.69957 -9.34467,51.27956 -23.1875,64 -13.84283,12.72044 -40.40977,26.19272 -55.375,28.4375 -14.96522,2.24478 -18.26648,2.84883 -23.28125,1.375 -1.21424,-0.35686 -4.55429,-2.16356 -5.09375,-3.4375 -2.47927,-5.85484 -1.19973,-17.78602 -1.8125,-21.15625 -0.74826,-4.11544 -0.78125,-49.5625 -0.90625,-49.5625 -0.125,0 -0.18924,45.44706 -0.9375,49.5625 -0.61277,3.37023 0.66677,15.30141 -1.8125,21.15625 -0.53946,1.27394 -3.87951,3.08063 -5.09375,3.4375 -5.01477,1.47382 -8.31603,0.86979 -23.28125,-1.375 -14.96523,-2.24478 -41.50092,-15.71706 -55.34375,-28.4375 -13.842833,-12.72044 -20.973973,-42.30043 -23.218753,-64 -2.24479,-21.69957 6.35506,-37.40543 11.21875,-50.5 4.863703,-13.09457 20.578153,-31.04777 27.312503,-38.15625 6.73435,-7.10848 16.48445,-12.70663 36.6875,-20.9375 8.14744,-3.31932 15.3172,-4.1009 21.46875,-4.125 z"
         style="opacity:0.5;color:#000000;fill:#ff0000;stroke:#000000;stroke-width:2.23799992;stroke-linecap:butt;stroke-linejoin:round;stroke-miterlimit:4;stroke-opacity:1;stroke-dasharray:none;stroke-dashoffset:0;marker:none;visibility:visible;display:inline;overflow:visible;enable-background:accumulate"
         sodipodi:nodetypes="cccccscccccssssssssssssssssssscs" />
    </clipPath>
  </defs>
  <sodipodi:namedview
     id="base"
     pagecolor="#ffffff"
     bordercolor="#666666"
     borderopacity="1.0"
     inkscape:pageopacity="0.0"
     inkscape:pageshadow="2"
     inkscape:zoom="2"
     inkscape:cx="248.16767"
     inkscape:cy="139.10849"
     inkscape:document-units="px"
     inkscape:current-layer="layer1"
     showgrid="false"
     inkscape:window-width="942"
     inkscape:window-height="1002"
     inkscape:window-x="2"
     inkscape:window-y="0"
     inkscape:window-maximized="0"
     showguides="true"
     inkscape:guide-bbox="true"
     fit-margin-top="0"
     fit-margin-left="0"
     fit-margin-right="0"
     fit-margin-bottom="0" />
  <metadata
     id="metadata7">
    <rdf:RDF>
      <cc:Work
         rdf:about="">
        <dc:format>image/svg+xml</dc:format>
        <dc:type
           rdf:resource="http://purl.org/dc/dcmitype/StillImage" />
        <dc:title />
      </cc:Work>
    </rdf:RDF>
  </metadata>
  <g
     inkscape:label="Layer 1"
     inkscape:groupmode="layer"
     id="layer1"
     transform="translate(-86.859961,-272.22923)">
    <path
       style="fill:#ebe1d2;fill-opacity:1;stroke:#000000;stroke-width:1.22514319px;stroke-linecap:butt;stroke-linejoin:miter;stroke-opacity:1"
       d="m 206.37774,272.8418 c -7.53653,0.0295 -16.32052,0.98707 -26.3023,5.05372 -24.75163,10.08399 -36.69689,16.94253 -44.94744,25.65143 -8.25054,8.70891 -27.50299,30.70415 -33.46172,46.74687 -5.958716,16.04272 -16.494764,35.28465 -13.744574,61.86973 2.750177,26.58508 11.486844,62.8248 28.446294,78.40916 16.95945,15.58436 49.46947,32.08984 67.80402,34.84001 18.33453,2.75019 22.37905,3.49022 28.52286,1.68457 1.48762,-0.43721 5.57933,-2.65067 6.24024,-4.21143 3.03746,-7.17301 1.46984,-21.79042 2.22057,-25.91943 0.91673,-5.042 0.99607,-60.70738 1.14921,-60.70738 0.15315,0 0.19295,55.66538 1.10968,60.70738 0.75073,4.12901 -0.81689,18.74642 2.22057,25.91943 0.66091,1.56076 4.75326,3.77423 6.24088,4.21143 6.14381,1.80566 10.18833,1.06561 28.52286,-1.68457 18.33455,-2.75017 50.88286,-19.25565 67.84231,-34.84001 16.95944,-15.58436 25.65783,-51.82408 28.408,-78.40916 2.75019,-26.58508 -7.78586,-45.82701 -13.74457,-61.86973 -5.95873,-16.04272 -25.21118,-38.03796 -33.46173,-46.74687 -8.25054,-8.7089 -20.15752,-15.56744 -44.90915,-25.65143 -15.97084,-6.50664 -28.92589,-5.02558 -38.51544,-4.59429 -1.44562,0.0651 -3.09383,0.0234 -3.56057,2.06743 -0.0544,0.23796 -0.14278,5.61474 -0.19143,6.24057 -0.0486,-0.62476 -0.0606,-6.00287 -0.11479,-6.24057 -0.46675,-2.044 -2.15324,-2.00241 -3.59886,-2.06743 -3.59608,-0.16173 -7.65291,-0.45943 -12.17486,-0.45943 z"
       id="path3778"
       inkscape:connector-curvature="0"
       sodipodi:nodetypes="cssssssssscsssssssssssccssc" />
    <path
       style="fill:#cab99e;fill-opacity:1;stroke:#000000;stroke-width:0.99988312;stroke-linecap:butt;stroke-linejoin:miter;stroke-miterlimit:4;stroke-opacity:1;stroke-dasharray:none"
       d="m 181.51837,406.53483 c -1.87065,2.99304 -1.87065,21.32544 -3.7413,25.81501 -1.87066,4.48956 -15.33936,13.09457 -32.9235,11.22392 -17.58413,-1.87066 -23.57022,-9.35327 -26.56327,-13.46871 -2.99304,-4.11543 -6.36022,-19.82892 -7.48261,-28.43392 -1.12239,-8.605 4.48957,-16.08761 14.59109,-22.82196 10.10153,-6.73435 10.84979,-17.21001 14.21697,-25.81501 3.36717,-8.60501 0,-12.72044 -3.36718,-16.08762 -3.36717,-3.36717 -8.605,-14.96522 -12.72044,-22.44783 -4.11543,-7.48261 -10.47565,-12.34631 -10.84978,-15.33936 -0.37414,-2.99304 6.73435,-11.22391 10.47565,-10.47565 3.74131,0.74826 8.605,12.72044 13.09457,16.46174 4.48957,3.74131 18.3324,7.48261 27.31153,8.60501 8.97914,1.12239 11.22392,7.10848 13.09457,17.95826 1.87066,10.84979 5.98609,29.93045 7.48262,36.29067 1.49652,6.36022 3.77432,11.22392 12.89285,11.22392 9.11853,0 11.39633,-4.8637 12.89285,-11.22392 1.49653,-6.36022 5.61196,-25.44088 7.48262,-36.29067 1.87065,-10.84978 4.11543,-16.83587 13.09457,-17.95826 8.97913,-1.1224 22.82196,-4.8637 27.31153,-8.60501 4.48957,-3.7413 9.35326,-15.71348 13.09457,-16.46174 3.7413,-0.74826 10.84979,7.48261 10.47565,10.47565 -0.37413,2.99305 -6.73435,7.85675 -10.84978,15.33936 -4.11544,7.48261 -9.35327,19.08066 -12.72044,22.44783 -3.36718,3.36718 -6.73435,7.48261 -3.36718,16.08762 3.36718,8.605 4.11544,19.08066 14.21697,25.81501 10.10152,6.73435 15.71348,14.21696 14.59109,22.82196 -1.12239,8.605 -4.48957,24.31849 -7.48261,28.43392 -2.99305,4.11544 -8.97914,11.59805 -26.56327,13.46871 -17.58414,1.87065 -31.05284,-6.73436 -32.9235,-11.22392 -1.87065,-4.48957 -1.87065,-22.82197 -3.7413,-25.81501 -1.87065,-2.99305 -2.65193,-7.85674 -15.51177,-7.85674 -12.85984,0 -13.64112,4.86369 -15.51177,7.85674 z"
       id="path2992-1"
       inkscape:connector-curvature="0"
       sodipodi:nodetypes="ssssssssssssssscssssssssssssssscs"
       clip-path="url(#clipPath3798)"
       transform="matrix(1.2251432,0,0,1.2251432,-19.555927,-61.290551)" />
    <path
       style="fill:url(#linearGradient3840);fill-opacity:1;stroke:#000000;stroke-width:1.22793043;stroke-linecap:round;stroke-linejoin:miter;stroke-miterlimit:4;stroke-opacity:1;stroke-dasharray:none"
       d="m 433.8426,452.65143 c -9.3787,-12.19762 -21.02755,-14.94607 -34.07068,-21.24423 -7.77191,-4.25659 -17.98767,-12.21863 -25.19897,-3.20648 -9.92809,11.95349 -8.78167,29.47332 -14.73445,43.54984 -6.84705,14.79338 -23.39942,16.18639 -37.10074,17.85294 -14.52674,1.57677 -29.28343,-0.28788 -43.52607,-3.66524 -12.69291,-1.94096 -20.13066,-12.88295 -31.58737,-18.0245 -39.58818,-17.76638 -3.64494,-21.76989 15.38117,-10.64475 14.57257,8.52101 37.25064,10.53645 54.26482,8.69917 10.45934,-2.89939 19.10567,-3.31762 23.86526,-11.93975 6.13814,-12.29991 2.82047,-33.82926 11.22136,-44.78265 4.09509,-7.28385 -1.43066,-15.06622 -6.33993,-20.29711 -6.23459,-8.17631 -8.41462,-17.24732 -17.22474,-23.09332 -12.91906,-5.2817 -26.57497,-20.87515 -30.40688,-40.20978 -2.24226,-5.14429 -4.54195,-10.38615 -9.45844,-13.54732 -5.73436,-4.69404 -18.46516,-7.13647 -22.15804,-5.8708 -3.69289,1.26566 -22.81775,-5.98363 -14.89933,-9.87555 7.91839,-3.89194 33.42825,-1.45105 48.35813,5.93051 43.67767,9.53018 49.49678,20.35863 52.25191,34.96182 0.24515,29.50555 8.9726,42.91959 24.8859,44.43452 12.49062,4.55893 19.17535,6.93735 31.73345,11.31422 14.6587,8.10184 24.67821,7.85961 35.48455,7.43986"
       id="path2990"
       inkscape:connector-curvature="0"
       sodipodi:nodetypes="ccccccssccccccczzccccc"
       clip-path="url(#clipPath3880)"
       transform="matrix(1.2251432,0,0,1.2251432,-19.555927,-61.290551)" />
    <path
       style="fill:none;stroke:#000000;stroke-width:1.22514319px;stroke-linecap:butt;stroke-linejoin:miter;stroke-opacity:1"
       d="m 328.2412,490.57271 c 16.95944,-15.58436 25.65783,-51.82408 28.408,-78.40916 2.75019,-26.58508 -7.78586,-45.82701 -13.74457,-61.86973 m -78.37088,-72.3983 c -15.97084,-6.50664 -28.92589,-5.02558 -38.51544,-4.59429 -1.44562,0.0651 -3.09383,0.0234 -3.56057,2.06743 -0.0544,0.23796 -0.14278,5.61474 -0.19143,6.24057 -0.0486,-0.62476 -0.0606,-6.00287 -0.11479,-6.24057 -0.46675,-2.044 -2.15324,-2.00241 -3.59886,-2.06743 -3.59608,-0.16173 -7.65291,-0.45943 -12.17486,-0.45943 l -6e-5,0 c -7.53653,0.0295 -16.32052,0.98707 -26.3023,5.05372 -24.75163,10.08399 -36.69689,16.94253 -44.94744,25.65143 -8.25054,8.70891 -27.50299,30.70415 -33.46172,46.74687 -5.958716,16.04272 -16.494764,35.28465 -13.744574,61.86973 2.750177,26.58508 11.486844,62.8248 28.446294,78.40916 16.95945,15.58436 49.46947,32.08984 67.80402,34.84001 18.33453,2.75019 22.37905,3.49022 28.52286,1.68457 1.48762,-0.43721 5.57933,-2.65067 6.24024,-4.21143 3.03746,-7.17301 1.46984,-21.79042 2.22057,-25.91943 0.91673,-5.042 0.99607,-60.70738 1.14921,-60.70738 0.15315,0 0.19295,55.66538 1.10968,60.70738 0.75073,4.12901 -0.81689,18.74642 2.22057,25.91943 0.66091,1.56076 4.75326,3.77423 6.24088,4.21143 6.14381,1.80566 10.18833,1.06561 28.52286,-1.68457"
       id="path3778-4"
       inkscape:connector-curvature="0"
       sodipodi:nodetypes="csccssccsscssssssssscsssc" />
    <path
       sodipodi:type="arc"
       style="color:#000000;fill:none;stroke:#000000;stroke-width:1.22500002;stroke-linecap:butt;stroke-linejoin:round;stroke-miterlimit:4;stroke-opacity:1;stroke-dasharray:none;stroke-dashoffset:0;marker:none;visibility:visible;display:inline;overflow:visible;enable-background:accumulate"
       id="path2994"
       sodipodi:cx="131.1683"
       sodipodi:cy="-27.101351"
       sodipodi:rx="8.1317282"
       sodipodi:ry="4.9497476"
       d="m 139.30003,-27.101351 c 0,2.73367 -3.6407,4.949748 -8.13173,4.949748 -4.49103,0 -8.13172,-2.216078 -8.13172,-4.949748 0,-2.73367 3.64069,-4.949747 8.13172,-4.949747 4.49103,0 8.13173,2.216077 8.13173,4.949747 z"
       transform="matrix(0.89192636,0,0,0.7214352,105.31765,434.93195)" />
  </g>
</svg>
